<svg id="Layer_1" data-name="Layer 1" xmlns="http://www.w3.org/2000/svg" xmlns:xlink="http://www.w3.org/1999/xlink" viewBox="0 0 704 200"><defs><style>.cls-1{fill:#dbdbdb;}.cls-2{fill:#eed5ca;}.cls-3{fill:#cadfee;}.cls-4{clip-path:url(#clip-path);}.cls-5{clip-path:url(#clip-path-2);}.cls-6{clip-path:url(#clip-path-3);}.cls-7{clip-path:url(#clip-path-4);}.cls-14,.cls-8{fill:none;stroke-miterlimit:10;}.cls-8{stroke:#8a8a8a;}.cls-9{font-size:13px;}.cls-12,.cls-15,.cls-9{font-family:HelveticaNeue, Helvetica Neue;}.cls-10{letter-spacing:-0.02em;}.cls-11{letter-spacing:0.02em;}.cls-12{font-size:10px;}.cls-13{letter-spacing:-0.09em;}.cls-14{stroke:#000;}.cls-15{font-size:11px;fill:#6b6b6b;}.cls-16{fill:#f2d5ca;}.cls-17{fill:#c6e0ed;}</style><clipPath id="clip-path"><circle class="cls-1" cx="337.74" cy="144.93" r="28.07"/></clipPath><clipPath id="clip-path-2"><circle class="cls-2" cx="296.74" cy="61.93" r="28.07"/></clipPath><clipPath id="clip-path-3"><circle class="cls-3" cx="379.74" cy="61.93" r="28.07"/></clipPath><clipPath id="clip-path-4"><circle class="cls-1" cx="606.74" cy="144.93" r="28.07"/></clipPath></defs><title>Artboard 1</title><circle class="cls-1" cx="337.74" cy="144.93" r="28.07"/><g class="cls-4"><path d="M337.34,147.14a10.06,10.06,0,1,0-10-10.06A10.05,10.05,0,0,0,337.34,147.14Zm0,5c-6.71,0-20.11,3.37-20.11,10.06v15.23h40.23V162.23C357.46,155.54,344.06,152.17,337.34,152.17Z"/></g><circle class="cls-2" cx="296.74" cy="61.93" r="28.07"/><g class="cls-5"><path d="M296.34,64.14a10.06,10.06,0,1,0-10-10.06A10.05,10.05,0,0,0,296.34,64.14Zm0,5c-6.71,0-20.11,3.37-20.11,10.06V94.46h40.23V79.23C316.46,72.54,303.06,69.17,296.34,69.17Z"/></g><circle class="cls-3" cx="379.74" cy="61.93" r="28.07"/><g class="cls-6"><path d="M379.34,64.14a10.06,10.06,0,1,0-10-10.06A10.05,10.05,0,0,0,379.34,64.14Zm0,5c-6.71,0-20.11,3.37-20.11,10.06V94.46h40.23V79.23C399.46,72.54,386.06,69.17,379.34,69.17Z"/></g><circle class="cls-1" cx="606.74" cy="144.93" r="28.07"/><g class="cls-7"><path d="M606.34,147.14a10.06,10.06,0,1,0-10.05-10.06A10.05,10.05,0,0,0,606.34,147.14Zm0,5c-6.71,0-20.11,3.37-20.11,10.06v15.23h40.23V162.23C626.46,155.54,613.06,152.17,606.34,152.17Z"/></g><rect class="cls-8" x="256.73" y="24.5" width="164" height="73" rx="36.5"/><text class="cls-9" transform="translate(4.34 17.61)">Our end goal is ML+ML+human <tspan x="0" y="19">debates, but ML is too primitive to </tspan><tspan x="0" y="38">do many inte</tspan><tspan class="cls-10" x="75.39" y="38">r</tspan><tspan x="79.48" y="38">esting tasks. </tspan><tspan x="0" y="57">The</tspan><tspan class="cls-10" x="21.67" y="57">r</tspan><tspan x="25.77" y="57">efo</tspan><tspan class="cls-10" x="44.06" y="57">r</tspan><tspan x="48.15" y="57">e, we p</tspan><tspan class="cls-10" x="90.52" y="57">r</tspan><tspan x="94.61" y="57">opose </tspan><tspan class="cls-10" x="134.34" y="57">r</tspan><tspan x="138.44" y="57">eplacing ML </tspan><tspan x="0" y="76">debaters with human debaters, </tspan><tspan x="0" y="95">lea</tspan><tspan class="cls-11" x="16.85" y="95">r</tspan><tspan x="21.41" y="95">ning how do best conduct </tspan><tspan x="0" y="114">debates in this human-only setting, </tspan><tspan x="0" y="133">and eventually applying what we </tspan><tspan x="0" y="152">lea</tspan><tspan class="cls-11" x="16.85" y="152">r</tspan><tspan x="21.41" y="152">n to the ML+ML+human case.</tspan></text><text class="cls-12" transform="translate(293.54 14.78)">HUMAN DEB<tspan class="cls-13" x="59.63" y="0">A</tspan><tspan x="65.19" y="0">TERS</tspan></text><rect class="cls-8" x="526.5" y="24.5" width="164" height="73" rx="36.5"/><text class="cls-12" transform="translate(560.97 14.78)">MACHINE DEB<tspan class="cls-13" x="68.33" y="0">A</tspan><tspan x="73.89" y="0">TERS</tspan></text><text class="cls-9" transform="translate(459.43 46.61)">Apply <tspan x="-5.42" y="19">lessons</tspan></text><path class="cls-14" d="M431.48,34.1a57.43,57.43,0,0,1,83.34-5.18"/><path d="M519,33.27a30,30,0,0,0-9.37-2.8l4.6-2.09,2.21-4.55A30.16,30.16,0,0,0,519,33.27Z"/><text class="cls-15" transform="translate(297.45 193.16)">HUMAN JUDGE</text><text class="cls-15" transform="translate(566.45 193.16)">HUMAN JUDGE</text><circle class="cls-16" cx="566.74" cy="60.93" r="28.07"/><path d="M582.33,74.88a3.83,3.83,0,0,0,3.82-3.83l0-21.08a3.85,3.85,0,0,0-3.84-3.84H551.67A3.85,3.85,0,0,0,547.83,50V71.05a3.85,3.85,0,0,0,3.84,3.83H544a3.85,3.85,0,0,0,3.83,3.84h38.34A3.85,3.85,0,0,0,590,74.88ZM551.67,50h30.66V71.05H551.67ZM567,76.8a1.92,1.92,0,1,1,1.92-1.92A1.93,1.93,0,0,1,567,76.8Z"/><circle class="cls-17" cx="651.74" cy="60.93" r="28.07"/><path d="M667.33,74.88a3.83,3.83,0,0,0,3.82-3.83l0-21.08a3.85,3.85,0,0,0-3.84-3.84H636.67A3.85,3.85,0,0,0,632.83,50V71.05a3.85,3.85,0,0,0,3.84,3.83H629a3.85,3.85,0,0,0,3.83,3.84h38.34A3.85,3.85,0,0,0,675,74.88ZM636.67,50h30.66V71.05H636.67ZM652,76.8a1.92,1.92,0,1,1,1.92-1.92A1.93,1.93,0,0,1,652,76.8Z"/></svg>