<svg id="Layer_1" data-name="Layer 1" xmlns="http://www.w3.org/2000/svg" viewBox="0 0 1133 403"><defs><style>.cls-1,.cls-12,.cls-2,.cls-4{fill:none;}.cls-1{stroke:#a3a3a3;}.cls-1,.cls-2{stroke-opacity:0.4;stroke-width:1.5px;}.cls-15,.cls-2{stroke:#000;}.cls-25,.cls-3{fill:#008bee;}.cls-12,.cls-23,.cls-24,.cls-25,.cls-4{font-size:11px;}.cls-12,.cls-4{stroke:#fff;stroke-width:3px;}.cls-12,.cls-15,.cls-16,.cls-17,.cls-4{stroke-miterlimit:10;}.cls-12,.cls-14,.cls-21,.cls-23,.cls-24,.cls-25,.cls-4{font-family:HelveticaNeue, Helvetica Neue;}.cls-5{letter-spacing:-0.02em;}.cls-12,.cls-24,.cls-6{letter-spacing:-0.11em;}.cls-7{letter-spacing:0em;}.cls-8{letter-spacing:-0.02em;}.cls-9{letter-spacing:-0.09em;}.cls-10{letter-spacing:-0.03em;}.cls-11{letter-spacing:0em;}.cls-13,.cls-14,.cls-23,.cls-24{fill:#ee4900;}.cls-14,.cls-20{font-size:10px;}.cls-15,.cls-16,.cls-17{fill:#fff;}.cls-16{stroke:#008bee;}.cls-17{stroke:#ee4900;}.cls-18{font-size:12px;}.cls-18,.cls-20{font-family:HelveticaNeue-Bold, Helvetica Neue;font-weight:700;}.cls-19{letter-spacing:-0.02em;}.cls-21{font-size:13px;}.cls-22{letter-spacing:-0.02em;}</style></defs><title>Artboard 1</title><path class="cls-1" d="M294.36,15.89c-71.43,0-71.43,66.53-142.86,66.53"/><path class="cls-2" d="M294.36,155c-71.43,0-71.43-72.53-142.86-72.53"/><path class="cls-1" d="M437.21,15.89H294.36"/><path class="cls-1" d="M437.21,65.89c-71.42,0-71.42,89.06-142.85,89.06"/><path class="cls-2" d="M437.21,244C365.79,244,365.79,155,294.36,155"/><path class="cls-1" d="M580.07,15.89H437.21"/><path class="cls-1" d="M580.07,65.89H437.21"/><path class="cls-2" d="M580.07,115.89C508.64,115.89,508.64,244,437.21,244"/><path class="cls-1" d="M580.07,209.64c-71.43,0-71.43,34.38-142.86,34.38"/><path class="cls-1" d="M580.07,284.64c-71.43,0-71.43-40.62-142.86-40.62"/><path class="cls-1" d="M580.07,372.14C508.64,372.14,508.64,244,437.21,244"/><path class="cls-1" d="M722.93,84.64c-71.43,0-71.43,31.25-142.86,31.25"/><path class="cls-2" d="M722.93,147.14c-71.43,0-71.43-31.25-142.86-31.25"/><path class="cls-1" d="M722.93,209.64H580.07"/><path class="cls-1" d="M722.93,259.64c-71.43,0-71.43,25-142.86,25"/><path class="cls-1" d="M722.93,309.64c-71.43,0-71.43-25-142.86-25"/><path class="cls-1" d="M722.93,359.64c-71.43,0-71.43,12.5-142.86,12.5"/><path class="cls-1" d="M722.93,384.64c-71.43,0-71.43-12.5-142.86-12.5"/><path class="cls-1" d="M865.79,84.64H722.93"/><path class="cls-1" d="M865.79,130.64c-71.43,0-71.43,16.5-142.86,16.5"/><path class="cls-2" d="M865.79,164.64c-71.43,0-71.43-17.5-142.86-17.5"/><path class="cls-1" d="M865.79,209.64H722.93"/><path class="cls-1" d="M865.79,259.64H722.93"/><path class="cls-1" d="M865.79,309.64H722.93"/><path class="cls-1" d="M865.79,384.64H722.93"/><path class="cls-1" d="M1008.64,84.64H865.79"/><path class="cls-2" d="M1008.64,164.64H865.79"/><path class="cls-1" d="M1008.64,209.64H865.79"/><path class="cls-1" d="M1008.64,309.64H865.79"/><circle class="cls-3" cx="722.93" cy="359.64" r="2.5"/><circle class="cls-3" cx="1008.64" cy="309.64" r="2.5"/><circle class="cls-3" cx="1008.64" cy="209.64" r="2.5"/><circle class="cls-3" cx="1008.64" cy="164.64" r="2.5"/><circle class="cls-3" cx="1008.64" cy="84.64" r="2.5"/><circle class="cls-3" cx="722.93" cy="384.64" r="2.5"/><circle class="cls-3" cx="722.93" cy="309.64" r="2.5"/><circle class="cls-3" cx="722.93" cy="259.64" r="2.5"/><circle class="cls-3" cx="722.93" cy="209.64" r="2.5"/><circle class="cls-3" cx="722.93" cy="147.14" r="2.5"/><circle class="cls-3" cx="722.93" cy="84.64" r="2.5"/><circle class="cls-3" cx="437.21" cy="244.02" r="2.5"/><circle class="cls-3" cx="437.21" cy="65.89" r="2.5"/><circle class="cls-3" cx="437.21" cy="15.89" r="2.5"/><text class="cls-4" transform="translate(1018.64 308.6)">Bali&apos;s much <tspan x="0" y="12">warmer</tspan></text><text class="cls-4" transform="translate(1018.64 209.6)">The flight will <tspan x="0" y="12">dominate the cost</tspan></text><text class="cls-4" transform="translate(1018.64 164.6)">That&apos;s not ha<tspan class="cls-5" x="64.39" y="0">r</tspan><tspan x="67.86" y="0">d to </tspan><tspan x="0" y="12">obtain</tspan></text><text class="cls-4" transform="translate(1018.64 82.6)">It&apos;s a vacation you <tspan x="0" y="12">can </tspan><tspan class="cls-5" x="20.99" y="12">r</tspan><tspan x="24.45" y="12">eschedule</tspan></text><text class="cls-4" transform="translate(732.93 387.74)">Not always too hot</text><text class="cls-4" transform="translate(732.93 362.74)"><tspan class="cls-6">Y</tspan><tspan class="cls-7" x="5.91" y="0">ou p</tspan><tspan class="cls-8" x="27.92" y="0">r</tspan><tspan x="31.38" y="0">efer hot to cold</tspan></text><text class="cls-4" transform="translate(732.93 307.6)">Insignificant compa<tspan class="cls-5" x="95.96" y="0">r</tspan><tspan x="99.43" y="0">ed </tspan><tspan x="0" y="12">to trip length</tspan></text><text class="cls-4" transform="translate(732.93 262.74)">Insignificant</text><text class="cls-4" transform="translate(732.93 212.74)">Use expedited service</text><text class="cls-4" transform="translate(732.93 150.24)">Medication helps jetlag</text><text class="cls-4" transform="translate(732.93 83.6)"><tspan class="cls-9">T</tspan><tspan x="5.3" y="0">rip length is enough </tspan><tspan x="0" y="12">to adjust</tspan></text><text class="cls-4" transform="translate(447.21 247.12)">Bali</text><text class="cls-4" transform="translate(447.21 68.99)">Ohio</text><text class="cls-4" transform="translate(447.21 18.99)">Alaska</text><text class="cls-4" transform="translate(875.79 388.77)">It&apos;s January</text><text class="cls-4" transform="translate(875.79 306.6)">The<tspan class="cls-5" x="18.34" y="0">r</tspan><tspan x="21.8" y="0">e a</tspan><tspan class="cls-8" x="36.67" y="0">r</tspan><tspan x="40.14" y="0">e no la</tspan><tspan class="cls-10" x="72.94" y="0">r</tspan><tspan x="76.3" y="0">ger </tspan><tspan x="0" y="12">considerations</tspan></text><text class="cls-4" transform="translate(875.79 212.74)">That costs too much</text><text class="cls-4" transform="translate(875.79 167.74)">P<tspan class="cls-8" x="7.13" y="0">r</tspan><tspan class="cls-11" x="10.59" y="0">escription needed</tspan></text><text class="cls-4" transform="translate(875.79 127.6)">This hasn&apos;t worked for <tspan x="0" y="12">you in the past</tspan></text><text class="cls-4" transform="translate(875.79 78.6)"><tspan class="cls-6">Y</tspan><tspan x="5.91" y="0">ou&apos;d need to take a </tspan><tspan x="0" y="12">business call at a wei</tspan><tspan class="cls-5" x="104.5" y="12">r</tspan><tspan x="107.96" y="12">d </tspan><tspan x="0" y="24">time on first day</tspan></text><text class="cls-4" transform="translate(590.07 375.24)">It&apos;s too hot</text><text class="cls-4" transform="translate(590.07 284.48)">The flight takes <tspan x="0" y="12">longer</tspan></text><text class="cls-4" transform="translate(590.07 209.83)"><tspan class="cls-6">Y</tspan><tspan x="5.91" y="0">ou don&apos;t have a </tspan><tspan x="0" y="12">passport</tspan></text><text class="cls-12" transform="translate(590.07 118.99)">Y<tspan class="cls-7" x="5.91" y="0">ou hate jet lag</tspan></text><text class="cls-4" transform="translate(304.36 158.05)">Alaska</text><text class="cls-4" transform="translate(304.36 18.99)">Bali</text><circle class="cls-13" cx="865.79" cy="384.64" r="2.5"/><circle class="cls-13" cx="865.79" cy="309.64" r="2.5"/><text class="cls-14" transform="translate(875.79 262.74)">...</text><circle class="cls-13" cx="865.79" cy="259.64" r="2.5"/><text class="cls-14" transform="translate(875.79 262.74)">...</text><circle class="cls-13" cx="865.79" cy="209.64" r="2.5"/><circle class="cls-13" cx="865.79" cy="164.64" r="2.5"/><circle class="cls-13" cx="865.79" cy="130.64" r="2.5"/><circle class="cls-13" cx="865.79" cy="84.64" r="2.5"/><circle class="cls-13" cx="580.07" cy="372.14" r="2.5"/><circle class="cls-13" cx="580.07" cy="284.64" r="2.5"/><circle class="cls-13" cx="580.07" cy="209.64" r="2.5"/><circle class="cls-13" cx="580.07" cy="115.89" r="2.5"/><text class="cls-14" transform="translate(590.07 68.99)">...</text><circle class="cls-13" cx="580.07" cy="65.89" r="2.5"/><text class="cls-14" transform="translate(590.07 68.99)">...</text><text class="cls-14" transform="translate(590.07 18.99)">...</text><circle class="cls-13" cx="580.07" cy="15.89" r="2.5"/><text class="cls-14" transform="translate(590.07 18.99)">...</text><circle class="cls-13" cx="294.36" cy="154.95" r="2.5"/><circle class="cls-13" cx="294.36" cy="15.89" r="2.5"/><path class="cls-15" d="M13.26,55.5H142.33a12,12,0,0,1,12,12v24a12,12,0,0,1-12,12H25.26a12,12,0,0,1-12-12v-36a0,0,0,0,1,0,0Z"/><rect class="cls-16" x="1005.94" y="150.5" width="117.56" height="33" rx="10"/><rect class="cls-17" x="863.94" y="151.5" width="123.56" height="27" rx="10"/><rect class="cls-16" x="719.94" y="135.5" width="109.56" height="36" rx="10"/><rect class="cls-17" x="577.94" y="101.5" width="101.56" height="28" rx="10"/><rect class="cls-16" x="433.94" y="231.5" width="46.56" height="24" rx="10"/><rect class="cls-17" x="291.94" y="140.5" width="57.56" height="27" rx="10"/><text class="cls-18" transform="translate(26.38 76.12)">“Whe<tspan class="cls-19" x="30.89" y="0">r</tspan><tspan x="35.34" y="0">e should I go</tspan><tspan x="0" y="14.4">on vacation?”</tspan></text><text class="cls-20" transform="translate(13.88 45.16)">QUESTION</text><text class="cls-21" transform="translate(11.21 309.24)">A hypothetical partial debate t<tspan class="cls-22" x="174.32" y="0">r</tspan><tspan x="178.42" y="0">ee for the question </tspan><tspan x="0" y="19">“Whe</tspan><tspan class="cls-22" x="31.78" y="19">r</tspan><tspan x="35.88" y="19">e should I go on vacation?” A single debate </tspan><tspan x="0" y="38">would explo</tspan><tspan class="cls-22" x="70.52" y="38">r</tspan><tspan x="74.62" y="38">e only one of these paths, but a single </tspan><tspan x="0" y="57">path chosen by good debaters is evidence that other </tspan><tspan x="0" y="76">paths would not change the </tspan><tspan class="cls-22" x="165.67" y="76">r</tspan><tspan x="169.76" y="76">esult of the game.</tspan></text><text class="cls-23" transform="translate(875.79 388.77)">It&apos;s January</text><text class="cls-23" transform="translate(875.79 306.6)">The<tspan class="cls-5" x="18.34" y="0">r</tspan><tspan x="21.8" y="0">e a</tspan><tspan class="cls-8" x="36.67" y="0">r</tspan><tspan x="40.14" y="0">e no la</tspan><tspan class="cls-10" x="72.94" y="0">r</tspan><tspan x="76.3" y="0">ger </tspan><tspan x="0" y="12">considerations</tspan></text><text class="cls-23" transform="translate(875.79 212.74)">That costs too much</text><text class="cls-23" transform="translate(875.79 167.74)">P<tspan class="cls-8" x="7.13" y="0">r</tspan><tspan class="cls-11" x="10.59" y="0">escription needed</tspan></text><text class="cls-23" transform="translate(875.79 127.6)">This hasn&apos;t worked for <tspan x="0" y="12">you in the past</tspan></text><text class="cls-23" transform="translate(875.79 78.6)"><tspan class="cls-6">Y</tspan><tspan x="5.91" y="0">ou&apos;d need to take a </tspan><tspan x="0" y="12">business call at a wei</tspan><tspan class="cls-5" x="104.5" y="12">r</tspan><tspan x="107.96" y="12">d </tspan><tspan x="0" y="24">time on first day</tspan></text><text class="cls-23" transform="translate(590.07 375.24)">It&apos;s too hot</text><text class="cls-23" transform="translate(590.07 284.48)">The flight takes <tspan x="0" y="12">longer</tspan></text><text class="cls-23" transform="translate(590.07 209.83)"><tspan class="cls-6">Y</tspan><tspan x="5.91" y="0">ou don&apos;t have a </tspan><tspan x="0" y="12">passport</tspan></text><text class="cls-24" transform="translate(590.07 118.99)">Y<tspan class="cls-7" x="5.91" y="0">ou hate jet lag</tspan></text><text class="cls-23" transform="translate(304.36 158.05)">Alaska</text><text class="cls-23" transform="translate(304.36 18.99)">Bali</text><text class="cls-25" transform="translate(1018.64 308.6)">Bali&apos;s much <tspan x="0" y="12">warmer</tspan></text><text class="cls-25" transform="translate(1018.64 209.6)">The flight will <tspan x="0" y="12">dominate the cost</tspan></text><text class="cls-25" transform="translate(1018.64 164.6)">That&apos;s not ha<tspan class="cls-5" x="64.39" y="0">r</tspan><tspan x="67.86" y="0">d to </tspan><tspan x="0" y="12">obtain</tspan></text><text class="cls-25" transform="translate(1018.64 82.6)">It&apos;s a vacation you <tspan x="0" y="12">can </tspan><tspan class="cls-5" x="20.99" y="12">r</tspan><tspan x="24.45" y="12">eschedule</tspan></text><text class="cls-25" transform="translate(732.93 387.74)">Not always too hot</text><text class="cls-25" transform="translate(732.93 362.74)"><tspan class="cls-6">Y</tspan><tspan class="cls-7" x="5.91" y="0">ou p</tspan><tspan class="cls-8" x="27.92" y="0">r</tspan><tspan x="31.38" y="0">efer hot to cold</tspan></text><text class="cls-25" transform="translate(732.93 307.6)">Insignificant compa<tspan class="cls-5" x="95.96" y="0">r</tspan><tspan x="99.43" y="0">ed </tspan><tspan x="0" y="12">to trip length</tspan></text><text class="cls-25" transform="translate(732.93 262.74)">Insignificant</text><text class="cls-25" transform="translate(732.93 212.74)">Use expedited service</text><text class="cls-25" transform="translate(732.93 150.24)">Medication helps <tspan x="0" y="12">jetlag</tspan></text><text class="cls-25" transform="translate(732.93 83.6)"><tspan class="cls-9">T</tspan><tspan x="5.3" y="0">rip length is enough </tspan><tspan x="0" y="12">to adjust</tspan></text><text class="cls-25" transform="translate(447.21 247.12)">Bali</text><text class="cls-25" transform="translate(447.21 68.99)">Ohio</text><text class="cls-25" transform="translate(447.21 18.99)">Alaska</text></svg>